# xmcd
#
# Track frame offsets: 
#        150
#        11930
#        24527
#        37400
#        49677
#        76690
#        100350
#        123152
#        137725
#        149552
#        161852
#        168750
#        172675
#        186830
#
# Disc length: 2643 seconds
#
# Revision: 0
# Processed by: cddbd v1.5.2PL0 Copyright (c) Steve Scherf et al.
# Submitted via: ExactAudioCopy v0.95b4
#
DISCID=ba0a510e
DTITLE=Various Artist - Drive Archive - Blues Sampler
DYEAR=1994
DGENRE=Blues
TTITLE0=Boogie Chillun - John Lee Hooker
TTITLE1=Crawlin' King Snake - John Lee Hooker
TTITLE2=You Always Miss The Water  - Ray Charles
TTITLE3=Going Down Slow - Ray Charles
TTITLE4=I Heard My Children Crying - Lighnin' Hopkins
TTITLE5=I've Been Bucked And Scorned - Lighnin' Hopkins
TTITLE6=Drinking In The Blues - Sonny Terry And Brownie McGhee
TTITLE7=Right On That Shore - Sonny Terry And Brownie McGhee
TTITLE8=Good Time Roll Creole - Memphis Slim
TTITLE9=Its Been Too Long - Memphis Slim
TTITLE10=Noted Rider - Leadbelly
TTITLE11=Bring Me Li'l Water Silvy - Leadbelly
TTITLE12=I Done Found Out - Jimmy Whitherspoon
TTITLE13=Sweet Lovin' Blues - Jimmy Whitherspoon
EXTD=
EXTT0=
EXTT1=
EXTT2=
EXTT3=
EXTT4=
EXTT5=
EXTT6=
EXTT7=
EXTT8=
EXTT9=
EXTT10=
EXTT11=
EXTT12=
EXTT13=
PLAYORDER=
